<!DOCTYPE svg PUBLIC "-//W3C//DTD SVG 20010904//EN" "http://www.w3.org/TR/2001/REC-SVG-20010904/DTD/svg10.dtd">
<svg version="1.0" xmlns="http://www.w3.org/2000/svg" width="256px" height="256px" viewBox="0 0 2560 2560" preserveAspectRatio="xMidYMid meet">
<g id="layer101" fill="#313131" stroke="none">
 <path d="M1225 2394 c-11 -2 -45 -9 -75 -15 -30 -6 -98 -31 -150 -56 -84 -40 -107 -57 -201 -152 -289 -290 -487 -778 -535 -1314 -8 -91 7 -155 42 -191 13 -13 59 -36 102 -51 109 -39 347 -154 428 -207 38 -25 102 -72 143 -105 93 -77 153 -96 301 -96 148 0 208 19 301 96 41 33 105 80 143 105 81 53 319 168 428 207 93 33 122 60 138 126 25 102 -28 437 -107 682 -102 319 -240 563 -418 743 -100 101 -119 116 -205 157 -52 25 -115 50 -140 55 -55 13 -168 22 -195 16z"/>
 </g>
<g id="layer102" fill="#584f27" stroke="none">
 <path d="M1142 2216 c-188 -70 -364 -261 -506 -551 -139 -280 -216 -554 -233 -821 l-6 -100 79 -28 c199 -71 472 -220 597 -328 68 -59 95 -68 207 -68 112 0 139 9 207 68 125 107 398 257 596 327 l77 28 0 51 c0 28 -7 98 -14 156 -81 599 -405 1157 -738 1269 -85 29 -183 27 -266 -3z m218 -616 l0 -80 -80 0 -80 0 0 80 0 80 80 0 80 0 0 -80z m-22 -273 c18 -92 22 -148 22 -300 l0 -187 -75 0 -75 0 0 212 c0 157 4 234 17 300 l17 88 36 0 36 0 22 -113z"/>
 </g>
<g id="layer103" fill="#b48802" stroke="none">
 <path d="M1159 2221 c-286 -91 -572 -515 -700 -1036 -31 -127 -59 -314 -59 -395 l0 -48 67 -22 c94 -31 393 -178 478 -235 39 -26 96 -70 128 -97 68 -59 95 -68 207 -68 112 0 139 9 207 68 32 27 90 71 128 97 86 58 385 205 478 235 l69 22 -7 77 c-24 287 -87 532 -198 776 -220 481 -519 715 -798 626z m201 -621 l0 -80 -80 0 -80 0 0 80 0 80 80 0 80 0 0 -80z m-40 -164 c0 -2 9 -48 20 -101 16 -78 20 -136 20 -296 l0 -199 -80 0 -80 0 0 194 c0 127 5 219 14 263 8 37 17 85 20 106 7 35 9 37 46 37 22 0 40 -2 40 -4z"/>
 </g>
<g id="layer104" fill="#7c7d77" stroke="none">
 <path d="M1159 2221 c-286 -91 -572 -515 -700 -1036 -31 -127 -59 -314 -59 -395 l0 -48 67 -22 c94 -31 393 -178 478 -235 39 -26 96 -70 128 -97 68 -59 95 -68 207 -68 112 0 139 9 207 68 32 27 90 71 128 97 86 58 385 205 478 235 l69 22 -7 77 c-24 287 -87 532 -198 776 -220 481 -519 715 -798 626z m201 -621 l0 -80 -80 0 -80 0 0 80 0 80 80 0 80 0 0 -80z m-18 -250 c13 -65 17 -136 18 -297 l0 -213 -80 0 -80 0 0 203 c0 143 5 227 16 287 22 118 18 112 66 108 l42 -3 18 -85z m-683 -243 c1 -190 8 -199 231 -312 52 -26 131 -72 176 -101 106 -70 159 -94 214 -94 55 0 100 20 210 92 47 31 128 77 180 104 224 113 230 121 231 311 1 70 4 139 8 153 7 22 11 16 30 -45 31 -99 50 -193 57 -289 l7 -83 -54 -18 c-159 -52 -368 -163 -488 -259 l-76 -61 -105 0 -105 0 -70 56 c-122 98 -306 198 -477 260 -66 23 -68 25 -68 59 0 65 30 234 57 320 22 72 27 81 34 60 4 -14 7 -83 8 -153z"/>
 </g>
<g id="layer105" fill="#efbe01" stroke="none">
 <path d="M1181 2225 c-266 -75 -528 -424 -675 -898 -49 -156 -63 -229 -77 -405 -7 -83 -16 -152 -21 -152 -4 0 -8 -6 -8 -12 0 -7 37 -26 82 -41 186 -64 502 -240 598 -332 53 -51 96 -65 200 -65 104 0 147 14 200 65 94 90 390 256 589 330 47 17 86 36 88 42 2 5 -32 27 -77 47 l-80 38 -52 -18 c-158 -51 -368 -163 -487 -258 l-76 -61 -105 0 -105 0 -70 56 c-122 98 -306 198 -478 260 -65 23 -67 25 -67 59 0 65 30 234 57 320 22 72 27 81 34 60 4 -14 7 -83 8 -153 1 -190 8 -199 231 -312 52 -26 131 -72 176 -101 106 -70 159 -94 214 -94 55 0 100 20 210 92 47 31 128 77 180 104 224 113 230 121 231 311 1 70 4 139 8 153 7 23 9 22 21 -18 22 -71 23 -39 1 40 -45 160 -134 360 -211 473 -18 26 -30 60 -34 99 -16 124 -86 255 -165 306 -110 70 -236 94 -340 65z m179 -625 l0 -80 -80 0 -80 0 0 80 0 80 80 0 80 0 0 -80z m-18 -250 c13 -65 17 -136 18 -297 l0 -213 -80 0 -80 0 0 203 c0 143 5 227 16 287 22 118 18 112 66 108 l42 -3 18 -85z"/>
 </g>
<g id="layer106" fill="#a9aaa6" stroke="none">
 <path d="M1181 2225 c-266 -75 -528 -424 -675 -898 -49 -156 -63 -229 -77 -405 -7 -83 -16 -152 -21 -152 -4 0 -8 -6 -8 -12 0 -7 37 -26 82 -41 186 -64 502 -240 598 -332 53 -51 96 -65 200 -65 104 0 147 14 200 65 94 90 390 256 589 330 47 17 86 36 88 42 2 5 -33 27 -77 47 l-81 38 -77 -28 c-117 -43 -339 -158 -412 -214 -138 -106 -128 -101 -230 -101 -102 0 -92 -5 -230 101 -75 57 -275 162 -402 210 l-88 33 0 46 c0 123 50 351 115 528 42 113 165 324 243 419 67 81 166 156 241 185 74 28 168 28 241 0 118 -45 254 -177 347 -336 21 -36 42 -65 46 -65 8 0 -29 69 -73 135 -18 26 -30 61 -34 99 -16 124 -86 255 -165 306 -110 70 -236 94 -340 65z"/>
 </g>
<g id="layer107" fill="#d5cba6" stroke="none">
 <path d="M1230 2234 c-93 -18 -211 -77 -261 -131 -62 -66 -215 -297 -270 -405 -115 -229 -207 -555 -235 -831 -6 -60 -10 -70 -36 -88 -16 -12 -26 -25 -21 -29 4 -4 37 -17 73 -30 186 -65 472 -224 599 -333 64 -55 99 -67 201 -67 102 0 137 12 201 67 84 72 231 164 382 239 75 38 137 72 137 77 0 5 7 15 15 23 16 17 20 54 6 54 -5 0 -23 11 -39 25 -19 16 -33 21 -37 15 -3 -6 -10 -8 -15 -5 -5 3 -11 1 -15 -5 -3 -5 -14 -10 -23 -10 -31 0 -316 -149 -382 -200 -137 -105 -128 -101 -230 -101 -102 0 -92 -5 -230 101 -75 58 -275 162 -404 211 l-88 33 5 86 c9 150 58 351 129 529 37 93 157 293 227 377 66 81 165 156 240 185 74 28 168 28 241 0 118 -45 254 -177 347 -336 21 -36 42 -65 46 -65 18 0 -98 180 -165 255 -37 42 -46 61 -56 114 -18 101 -93 200 -170 225 -53 17 -135 27 -172 20z"/>
 <path d="M2049 805 c41 -19 76 -34 78 -32 4 5 -96 53 -127 61 -14 3 8 -10 49 -29z"/>
 </g>
<g id="layer108" fill="#d4d5d1" stroke="none">
 <path d="M1230 2234 c-93 -18 -211 -77 -261 -131 -62 -66 -215 -297 -270 -405 -115 -229 -207 -555 -235 -831 -6 -60 -10 -70 -36 -88 -16 -12 -26 -25 -21 -29 4 -4 37 -17 73 -30 186 -65 472 -224 599 -333 64 -55 99 -67 201 -67 102 0 137 12 201 67 84 72 231 164 382 239 75 38 137 72 137 77 0 5 7 15 15 23 24 24 17 47 -22 72 l-37 23 -60 -22 c-144 -51 -371 -179 -454 -254 -81 -73 -243 -73 -324 0 -87 79 -287 191 -464 259 l-89 34 -3 54 c-10 164 71 464 189 703 66 133 160 278 177 272 5 -1 37 25 73 57 35 32 58 56 52 52 -19 -10 -16 -1 4 15 11 10 14 10 9 2 -9 -17 3 -16 34 2 14 7 25 19 25 26 0 7 7 14 15 16 13 4 13 3 0 -7 -12 -10 -10 -11 10 -6 103 26 132 28 186 17 80 -16 156 -57 233 -125 36 -33 53 -46 38 -29 -22 24 -30 43 -32 83 -7 100 -90 217 -173 244 -53 17 -135 27 -172 20z m68 -171 c-10 -2 -26 -2 -35 0 -10 3 -2 5 17 5 19 0 27 -2 18 -5z m190 -63 c33 -22 66 -48 73 -57 8 -10 -5 -3 -27 15 -23 17 -61 43 -85 57 -24 14 -39 25 -33 25 7 0 39 -18 72 -40z m-458 -33 c0 -1 -24 -25 -52 -52 l-53 -50 50 53 c46 48 55 57 55 49z"/>
 <path d="M1990 835 c0 -5 128 -65 139 -65 3 0 -7 8 -24 18 -35 22 -115 54 -115 47z"/>
 </g>

</svg>