<!DOCTYPE svg PUBLIC "-//W3C//DTD SVG 20010904//EN" "http://www.w3.org/TR/2001/REC-SVG-20010904/DTD/svg10.dtd">
<svg version="1.0" xmlns="http://www.w3.org/2000/svg" width="32px" height="32px" viewBox="0 0 320 320" preserveAspectRatio="xMidYMid meet">
<g id="layer101" fill="#09afef" stroke="none">
 <path d="M0 160 l0 -160 160 0 160 0 0 160 0 160 -160 0 -160 0 0 -160z"/>
 </g>
<g id="layer102" fill="#5dc9f3" stroke="none">
 <path d="M0 160 l0 -160 160 0 160 0 0 160 0 160 -160 0 -160 0 0 -160z m240 119 c68 -38 79 -102 27 -154 -35 -35 -117 -59 -125 -36 -2 6 -9 8 -15 4 -7 -3 -1 6 12 20 15 16 19 27 12 27 -9 0 -11 8 -7 25 4 14 1 35 -6 48 -7 12 -11 25 -10 30 4 14 -36 7 -41 -7 -3 -8 -14 -19 -24 -25 -16 -8 -19 -5 -21 19 -5 61 122 92 198 49z m-167 -114 c38 -8 49 -28 21 -39 -15 -6 -15 -4 -3 11 12 15 12 16 -2 11 -9 -4 -22 -1 -29 5 -10 9 -10 6 0 -13 7 -14 16 -27 20 -30 4 -3 4 -14 -1 -25 -7 -19 -8 -19 -8 3 -1 23 -20 32 -22 10 -1 -7 -5 1 -9 17 -4 17 -11 39 -15 49 -7 16 -5 18 11 12 10 -4 27 -9 37 -11z m34 -107 c-3 -7 -5 -2 -5 12 0 14 2 19 5 13 2 -7 2 -19 0 -25z"/>
 <path d="M174 246 c-26 -20 -7 -51 30 -51 23 1 26 -2 22 -21 -7 -27 3 -56 16 -48 5 4 7 23 4 43 -3 20 -3 30 0 24 9 -21 34 -15 34 8 0 16 -5 20 -20 16 -11 -3 -20 -1 -20 5 0 5 -6 6 -12 2 -7 -4 -10 -4 -6 1 8 8 -9 35 -21 35 -4 0 -16 -6 -27 -14z"/>
 </g>
<g id="layer103" fill="#a1dff8" stroke="none">
 <path d="M0 160 l0 -160 160 0 160 0 0 160 0 160 -160 0 -160 0 0 -160z m240 125 c61 -32 81 -109 39 -154 -26 -27 -78 -51 -114 -51 -20 0 -25 -5 -26 -27 l-2 -28 -4 27 c-5 34 -20 37 -26 6 -4 -20 -4 -19 -6 5 -1 30 -17 37 -24 10 -3 -11 -5 -7 -6 10 -1 29 -20 38 -22 10 -1 -22 -19 39 -26 88 -6 45 9 74 50 99 39 24 125 27 167 5z"/>
 <path d="M167 238 c-7 -20 12 -48 32 -48 25 0 33 11 20 27 -9 10 -8 13 0 13 7 0 9 5 6 10 -9 14 -52 12 -58 -2z"/>
 <path d="M70 211 c-12 -23 -13 -42 -2 -39 15 4 52 -28 52 -45 0 -11 5 -17 13 -14 11 4 12 90 0 110 -9 15 -53 7 -63 -12z m37 -18 c-4 -3 -10 -3 -14 0 -3 4 0 7 7 7 7 0 10 -3 7 -7z"/>
 <path d="M250 200 c0 -13 5 -20 13 -17 6 2 12 10 12 17 0 7 -6 15 -12 18 -8 2 -13 -5 -13 -18z"/>
 <path d="M231 150 c0 -33 1 -34 10 -11 6 16 6 28 -1 35 -7 7 -10 -1 -9 -24z"/>
 </g>
<g id="layer104" fill="#fafdfe" stroke="none">
 <path d="M0 160 l0 -160 160 0 160 0 0 160 0 160 -160 0 -160 0 0 -160z m211 139 c45 -15 87 -55 94 -90 13 -60 -54 -129 -127 -129 -36 0 -38 -2 -38 -32 l-1 -33 -14 30 c-11 25 -14 26 -14 9 -2 -38 -14 -35 -35 8 -14 30 -21 38 -24 25 -7 -32 -19 -18 -27 30 -14 89 -10 111 20 143 44 46 104 59 166 39z"/>
 <path d="M177 243 c-13 -12 -7 -41 9 -47 23 -9 37 3 23 20 -8 10 -8 14 0 14 6 0 11 5 11 10 0 11 -33 14 -43 3z"/>
 <path d="M76 208 c-14 -19 -14 -23 2 -34 9 -8 23 -14 30 -14 6 0 12 -11 12 -25 0 -28 15 -34 24 -9 3 9 2 12 -5 9 -6 -4 -7 3 -3 19 16 64 -27 102 -60 54z m44 -18 c0 -5 -9 -6 -20 -3 -11 3 -17 9 -15 14 7 10 35 1 35 -11z"/>
 <path d="M259 220 c0 -3 -2 -13 -4 -22 -4 -20 10 -24 21 -7 3 6 1 16 -5 22 -6 6 -11 9 -12 7z"/>
 <path d="M232 150 c0 -14 2 -19 5 -12 2 6 2 18 0 25 -3 6 -5 1 -5 -13z"/>
 </g>

</svg>