<!DOCTYPE svg PUBLIC "-//W3C//DTD SVG 20010904//EN" "http://www.w3.org/TR/2001/REC-SVG-20010904/DTD/svg10.dtd">
<svg version="1.0" xmlns="http://www.w3.org/2000/svg" width="256px" height="256px" viewBox="0 0 2560 2560" preserveAspectRatio="xMidYMid meet">
<g id="layer101" fill="#70b9cc" stroke="none">
 <path d="M1028 2541 c-292 -64 -517 -194 -715 -413 -150 -167 -253 -384 -299 -624 -25 -136 -16 -405 19 -536 65 -246 170 -429 344 -601 172 -170 345 -268 591 -335 91 -24 111 -26 312 -26 201 0 221 2 312 26 246 67 419 165 591 335 173 171 277 352 345 601 24 91 26 111 26 312 0 201 -2 221 -26 312 -67 246 -165 419 -335 591 -171 174 -355 279 -601 344 -85 23 -121 26 -287 29 -158 3 -205 0 -277 -15z"/>
 </g>
<g id="layer102" fill="#feffff" stroke="none">
 <path d="M770 1545 l0 -415 45 0 45 0 0 -62 c0 -254 134 -430 358 -469 167 -30 359 69 434 223 33 68 48 141 48 233 l0 75 45 0 45 0 0 415 0 415 -510 0 -510 0 0 -415z m586 126 l-20 -79 26 -26 c49 -50 42 -128 -17 -174 -106 -84 -242 78 -147 174 l26 26 -20 79 -20 79 96 0 96 0 -20 -79z m154 -623 c0 -132 -47 -208 -153 -253 -52 -22 -114 -19 -172 9 -96 45 -134 115 -135 244 l0 82 230 0 230 0 0 -82z"/>
 </g>

</svg>