<!DOCTYPE svg PUBLIC "-//W3C//DTD SVG 20010904//EN" "http://www.w3.org/TR/2001/REC-SVG-20010904/DTD/svg10.dtd">
<svg version="1.0" xmlns="http://www.w3.org/2000/svg" width="512px" height="512px" viewBox="0 0 5120 5120" preserveAspectRatio="xMidYMid meet">
<g id="layer101" fill="#43b17e" stroke="none">
 <path d="M0 2560 l0 -2560 2560 0 2560 0 0 2560 0 2560 -2560 0 -2560 0 0 -2560z"/>
 </g>
<g id="layer102" fill="#ffffff" stroke="none">
 <path d="M2425 3914 c-170 -26 -282 -61 -425 -135 -217 -111 -396 -290 -514 -512 -20 -38 -36 -74 -36 -80 0 -9 262 -127 410 -185 4 -2 10 7 13 20 12 44 107 175 171 236 164 153 394 230 606 202 181 -24 326 -94 451 -219 87 -87 146 -181 186 -296 26 -77 28 -88 31 -315 2 -129 7 -239 12 -244 5 -5 107 -50 227 -101 l218 -92 3 286 c2 175 -1 323 -8 381 -48 391 -290 739 -640 919 -106 55 -209 92 -322 117 -71 15 -321 27 -383 18z"/>
 <path d="M1356 2834 c-3 -26 -6 -404 -6 -840 l0 -794 227 0 227 0 381 161 380 160 380 -160 379 -161 228 0 228 0 0 333 0 332 -211 89 c-115 48 -219 90 -229 93 -19 5 -20 -1 -20 -176 0 -99 -2 -181 -4 -181 -3 0 -170 73 -373 161 -202 89 -372 162 -378 162 -5 0 -176 -73 -378 -162 -203 -88 -370 -161 -373 -161 -2 0 -4 226 -4 503 l0 503 -218 92 c-119 51 -220 92 -223 92 -4 0 -9 -21 -13 -46z"/>
 </g>

</svg>