<!DOCTYPE svg PUBLIC "-//W3C//DTD SVG 20010904//EN" "http://www.w3.org/TR/2001/REC-SVG-20010904/DTD/svg10.dtd">
<svg version="1.0" xmlns="http://www.w3.org/2000/svg" width="256px" height="256px" viewBox="0 0 2560 2560" preserveAspectRatio="xMidYMid meet">
<g id="layer101" fill="#015801" stroke="none">
 <path d="M1225 2394 c-11 -2 -45 -9 -75 -15 -30 -6 -98 -31 -150 -56 -84 -40 -107 -57 -201 -152 -289 -290 -487 -778 -535 -1314 -8 -91 7 -155 42 -191 13 -13 59 -36 102 -51 109 -39 347 -154 428 -207 38 -25 102 -72 143 -105 93 -77 153 -96 301 -96 148 0 208 19 301 96 41 33 105 80 143 105 81 53 319 168 428 207 93 33 122 60 138 126 25 102 -28 437 -107 682 -102 319 -240 563 -418 743 -100 101 -119 116 -205 157 -52 25 -115 50 -140 55 -55 13 -168 22 -195 16z"/>
 </g>
<g id="layer102" fill="#008000" stroke="none">
 <path d="M1144 2216 c-97 -36 -153 -74 -245 -165 -197 -198 -373 -553 -453 -911 -29 -131 -46 -259 -46 -341 l0 -56 78 -28 c203 -74 456 -212 590 -324 75 -63 100 -71 212 -71 112 0 137 8 212 71 134 112 387 250 592 324 l79 29 -6 105 c-15 256 -107 576 -239 835 -221 429 -512 630 -774 532z m114 -635 c23 -16 100 -111 90 -111 -2 0 -33 29 -68 65 -64 65 -72 82 -22 46z m-585 -278 c-9 -218 -7 -331 6 -368 9 -25 43 -70 89 -117 42 -43 71 -78 65 -78 -6 0 -44 15 -85 34 -41 19 -100 42 -132 52 l-57 18 6 76 c11 124 85 430 104 430 4 0 5 -21 4 -47z m1250 -40 c38 -126 54 -197 66 -286 18 -134 19 -131 -46 -151 -31 -10 -90 -33 -131 -52 -41 -19 -79 -34 -85 -34 -7 0 20 33 59 73 101 103 109 124 106 277 -1 69 -5 155 -7 193 -3 37 -1 67 4 67 4 0 20 -39 34 -87z m-555 -755 c-13 -3 -52 -6 -88 -6 -36 0 -75 3 -88 6 -13 4 27 7 88 7 61 0 101 -3 88 -7z"/>
 </g>
<g id="layer103" fill="#00ba00" stroke="none">
 <path d="M1144 2216 c-97 -36 -153 -74 -245 -165 -197 -198 -373 -553 -453 -911 -29 -131 -46 -259 -46 -341 l0 -56 78 -28 c203 -74 456 -212 590 -324 75 -63 100 -71 212 -71 112 0 137 8 212 71 134 112 387 250 592 324 l79 29 -6 105 c-15 256 -107 576 -239 835 -221 429 -512 630 -774 532z m286 -212 c132 -62 260 -210 372 -431 101 -200 177 -455 193 -648 l7 -80 -69 -24 c-163 -58 -353 -160 -469 -252 -77 -61 -99 -69 -184 -69 -85 0 -107 8 -184 69 -34 27 -96 70 -138 95 -84 51 -288 146 -356 167 l-43 13 6 75 c23 261 141 602 282 813 56 84 155 193 212 232 121 84 249 98 371 40z"/>
 <path d="M1183 1736 c-57 -19 -137 -79 -172 -130 -45 -65 -72 -124 -61 -131 6 -3 59 41 118 99 60 58 113 106 119 106 6 0 75 -69 154 -152 161 -171 278 -281 305 -287 15 -3 17 4 11 72 -15 173 -117 340 -247 407 -54 28 -168 36 -227 16z"/>
 <path d="M1001 1439 l-185 -190 63 -63 63 -64 122 126 122 126 203 -207 c112 -113 208 -213 215 -222 9 -13 20 -7 75 49 l64 65 -278 285 c-153 157 -278 286 -279 285 -1 -1 -84 -86 -185 -190z"/>
 <path d="M1089 1222 c-46 -49 -102 -109 -125 -133 l-40 -44 22 -62 c41 -115 157 -267 248 -327 55 -37 120 -36 172 2 58 43 157 153 182 202 l21 43 -21 40 c-25 50 -335 367 -358 367 -9 0 -54 -40 -101 -88z"/>
 </g>
<g id="layer104" fill="#777b75" stroke="none">
 <path d="M1144 2216 c-97 -36 -153 -74 -245 -165 -197 -198 -373 -553 -453 -911 -29 -131 -46 -259 -46 -341 l0 -56 78 -28 c203 -74 456 -212 590 -324 75 -63 100 -71 212 -71 112 0 137 8 212 71 134 112 387 250 592 324 l79 29 -6 105 c-15 256 -107 576 -239 835 -221 429 -512 630 -774 532z m286 -212 c132 -62 260 -210 372 -431 101 -200 177 -455 193 -648 l7 -80 -69 -24 c-163 -58 -353 -160 -469 -252 -77 -61 -99 -69 -184 -69 -85 0 -107 8 -184 69 -34 27 -96 70 -138 95 -84 51 -288 146 -356 167 l-43 13 6 75 c23 261 141 602 282 813 56 84 155 193 212 232 121 84 249 98 371 40z"/>
 <path d="M1001 1439 l-185 -190 63 -63 62 -63 123 125 123 125 216 -219 216 -219 62 62 62 62 -278 285 c-153 157 -278 286 -279 285 -1 -1 -84 -86 -185 -190z"/>
 </g>
<g id="layer105" fill="#9eb19d" stroke="none">
 <path d="M1181 2225 c-99 -28 -171 -74 -271 -175 -206 -206 -355 -507 -446 -895 -18 -80 -45 -340 -37 -361 3 -8 -2 -17 -11 -20 -33 -13 -13 -30 66 -57 186 -64 502 -240 598 -332 53 -51 96 -65 200 -65 104 0 147 14 200 65 93 90 386 254 590 331 46 17 86 36 87 41 2 5 -32 26 -76 47 l-80 37 -73 -26 c-118 -42 -348 -160 -418 -215 -137 -105 -128 -101 -230 -101 -102 0 -93 -4 -230 101 -67 52 -315 179 -429 220 l-64 23 7 96 c13 196 71 401 168 596 154 307 315 471 496 505 155 29 336 -81 476 -288 16 -23 31 -40 33 -38 3 3 -9 25 -26 50 -17 24 -31 57 -31 71 0 55 -33 152 -75 225 -36 61 -54 81 -97 107 -108 66 -226 86 -327 58z"/>
 <path d="M1792 1605 c18 -35 34 -63 36 -61 4 5 -56 126 -63 126 -3 0 10 -29 27 -65z"/>
 <path d="M1001 1434 l-183 -187 61 -61 61 -61 125 125 126 125 214 -220 213 -220 56 55 c31 30 56 60 56 68 0 12 -521 553 -540 560 -4 1 -89 -81 -189 -184z"/>
 </g>
<g id="layer106" fill="#babcb7" stroke="none">
 <path d="M1180 2224 c-163 -44 -282 -158 -445 -427 -135 -222 -258 -607 -287 -894 -10 -105 -15 -124 -31 -129 -33 -10 -12 -27 74 -59 204 -76 471 -225 586 -327 61 -55 101 -68 203 -68 102 0 142 13 203 68 29 25 93 72 142 105 90 59 377 204 449 227 22 7 41 20 43 31 4 15 9 17 27 8 21 -10 21 -10 1 7 -11 9 -48 29 -82 45 l-61 28 -54 -18 c-69 -24 -210 -87 -273 -121 -105 -58 -136 -78 -196 -126 -93 -74 -104 -78 -199 -78 -95 0 -108 5 -196 77 -51 41 -259 167 -277 167 -3 0 -34 13 -69 30 -35 16 -88 38 -118 48 l-55 19 1 94 c1 102 27 242 74 392 42 138 103 277 119 277 10 0 24 33 25 57 1 7 5 12 9 10 11 -2 42 53 39 69 -1 6 7 19 18 29 11 10 20 22 20 27 0 13 62 89 68 83 3 -2 30 18 60 46 30 27 72 59 94 70 23 12 36 24 32 31 -4 7 -3 8 5 4 6 -4 43 1 81 10 67 18 73 18 138 1 77 -20 93 -21 72 -6 -13 9 -13 10 0 6 8 -2 15 -9 15 -16 0 -12 23 -31 38 -31 5 0 5 5 1 12 -4 7 -3 8 5 4 6 -4 9 -12 6 -17 -4 -5 -2 -9 3 -9 5 0 36 -25 70 -56 74 -66 83 -59 58 44 -22 89 -93 194 -150 221 -54 26 -151 51 -196 50 -19 0 -60 -7 -90 -15z m118 -161 c-10 -2 -26 -2 -35 0 -10 3 -2 5 17 5 19 0 27 -2 18 -5z m-208 -56 c0 -2 -15 -13 -32 -26 l-33 -22 28 25 c26 24 37 31 37 23z m-70 -50 c0 -2 -15 -16 -32 -33 l-33 -29 29 33 c28 30 36 37 36 29z"/>
 <path d="M1009 1440 c-96 -99 -175 -184 -177 -188 -1 -5 22 -35 53 -68 l55 -59 108 110 c59 61 115 117 126 125 17 13 34 -2 232 -205 l213 -219 56 59 c30 33 55 63 55 67 0 5 -35 43 -77 86 -43 43 -153 155 -245 248 -92 93 -180 181 -196 197 l-29 27 -174 -180z"/>
 </g>
<g id="layer107" fill="#ebedeb" stroke="none">
 <path d="M1190 2211 c-90 -28 -203 -117 -265 -211 -25 -37 -45 -71 -45 -76 0 -4 -13 -35 -29 -68 -16 -34 -33 -79 -36 -101 l-7 -40 28 40 c45 65 96 126 102 121 3 -3 30 17 60 45 30 27 72 59 93 70 22 10 38 24 36 30 -1 7 5 14 13 16 13 4 13 3 0 -6 -21 -15 -5 -14 73 6 64 17 70 17 137 -1 87 -22 144 -53 218 -119 50 -45 52 -46 17 -9 -21 23 -56 54 -76 68 -26 18 -35 31 -32 44 7 27 -24 114 -50 138 -54 51 -163 75 -237 53z m108 -148 c-10 -2 -26 -2 -35 0 -10 3 -2 5 17 5 19 0 27 -2 18 -5z m152 -38 c14 -8 21 -14 15 -14 -5 0 -21 6 -35 14 -14 8 -20 14 -15 14 6 0 21 -6 35 -14z m-385 -38 c-16 -12 -48 -38 -70 -57 -22 -19 -33 -26 -25 -16 18 23 109 96 118 96 4 0 -6 -11 -23 -23z"/>
 <path d="M1009 1440 c-96 -99 -175 -184 -177 -188 -1 -5 22 -35 53 -68 l55 -59 108 110 c59 61 115 117 126 125 17 13 34 -2 232 -205 l213 -219 56 59 c30 33 55 63 55 67 0 5 -35 43 -77 86 -43 43 -153 155 -245 248 -92 93 -180 181 -196 197 l-29 27 -174 -180z"/>
 <path d="M502 815 c-53 -24 -113 -63 -80 -52 11 4 45 -10 85 -33 38 -22 130 -71 205 -109 153 -78 279 -157 365 -231 68 -58 101 -70 203 -70 102 0 135 12 202 69 71 60 173 129 298 199 52 30 82 51 66 47 l-29 -6 16 25 c18 27 22 56 9 56 -5 0 -19 10 -31 21 l-23 22 -71 -34 c-99 -47 -172 -92 -241 -147 -89 -71 -101 -76 -196 -76 -95 0 -108 5 -196 77 -63 51 -204 133 -319 185 -63 28 -202 83 -208 81 -1 0 -26 -11 -55 -24z"/>
 </g>

</svg>