<!DOCTYPE svg PUBLIC "-//W3C//DTD SVG 20010904//EN" "http://www.w3.org/TR/2001/REC-SVG-20010904/DTD/svg10.dtd">
<svg version="1.0" xmlns="http://www.w3.org/2000/svg" width="225px" height="225px" viewBox="0 0 2250 2250" preserveAspectRatio="xMidYMid meet">
<g id="layer101" fill="#020202" stroke="none">
 <path d="M0 1125 l0 -1125 1125 0 1125 0 0 1125 0 1125 -1125 0 -1125 0 0 -1125z"/>
 </g>
<g id="layer102" fill="#ffffff" stroke="none">
 <path d="M0 1688 l0 -562 65 64 65 65 498 -498 497 -497 497 497 498 498 65 -65 65 -64 0 562 0 562 -520 0 -520 0 0 -629 c0 -347 4 -632 8 -635 16 -9 143 41 197 79 255 175 299 535 93 761 -28 30 -71 69 -95 85 l-43 30 0 94 c0 63 4 95 11 95 21 0 124 -60 182 -105 107 -84 197 -224 234 -365 26 -99 24 -264 -6 -360 -39 -127 -86 -206 -181 -300 -140 -140 -288 -202 -485 -202 -185 0 -341 61 -472 186 -156 147 -234 343 -220 547 13 172 81 322 203 445 64 65 197 154 232 154 9 0 12 -25 12 -94 l0 -93 -37 -25 c-21 -14 -57 -44 -80 -67 -157 -158 -196 -388 -98 -587 42 -85 95 -148 170 -199 54 -38 181 -88 197 -79 4 3 8 288 8 635 l0 629 -520 0 -520 0 0 -562z"/>
 <path d="M0 560 l0 -560 562 0 563 0 -560 560 c-308 308 -561 560 -562 560 -2 0 -3 -252 -3 -560z"/>
 <path d="M1685 560 l-560 -560 563 0 562 0 0 560 c0 308 -1 560 -3 560 -1 0 -254 -252 -562 -560z"/>
 </g>

</svg>